<?xml version="1.0" standalone="no"?>
<!DOCTYPE svg PUBLIC "-//W3C//DTD SVG 20010904//EN"
 "http://www.w3.org/TR/2001/REC-SVG-20010904/DTD/svg10.dtd">
<svg version="1.0" xmlns="http://www.w3.org/2000/svg"
 width="512.000000pt" height="512.000000pt" viewBox="0 0 512.000000 512.000000"
 preserveAspectRatio="xMidYMid meet">
<metadata>
Created by potrace 1.14, written by Peter Selinger 2001-2017
</metadata>
<g transform="translate(0.000000,512.000000) scale(0.100000,-0.100000)"
fill="#000000" stroke="none">
<path d="M1107 4703 c184 -230 344 -427 354 -438 19 -19 19 -10 19 418 l0 437
-355 0 -354 0 336 -417z"/>
<path d="M2380 3925 l0 -1195 -402 0 -403 0 -490 609 -490 609 -3 -609 -2
-609 -295 0 -295 0 0 -70 0 -70 538 0 c571 0 756 -8 912 -40 446 -91 725 -340
794 -709 21 -109 21 -323 0 -432 -63 -335 -295 -581 -657 -700 -163 -53 -294
-71 -574 -76 l-253 -6 0 -313 0 -314 1015 0 1015 0 0 1296 0 1296 763 -5 c798
-5 833 -6 1025 -52 193 -46 345 -123 468 -238 l74 -69 0 1203 c0 661 -2 1200
-3 1198 -2 -2 -128 -216 -280 -475 l-277 -471 0 -476 0 -477 -450 0 -450 0 0
478 0 477 -418 715 -418 715 -222 3 -222 2 0 -1195z"/>
<path d="M3820 5113 c0 -18 295 -572 301 -565 9 9 299 559 299 567 0 3 -135 5
-300 5 -165 0 -300 -3 -300 -7z"/>
<path d="M760 1570 l0 -300 128 0 c223 1 340 31 415 108 89 91 99 247 24 359
-64 95 -189 133 -443 133 l-124 0 0 -300z"/>
<path d="M3690 1570 l0 -262 248 4 c290 5 326 12 403 85 135 127 87 343 -90
410 -38 14 -91 17 -303 21 l-258 3 0 -261z"/>
<path d="M5041 989 c-60 -57 -205 -159 -244 -172 -5 -1 64 -111 154 -242 l164
-240 3 182 c1 101 1 263 0 362 l-3 179 -74 -69z"/>
<path d="M3690 335 l0 -335 315 0 315 0 -153 233 c-84 127 -184 278 -222 335
l-68 102 -94 0 -93 0 0 -335z"/>
</g>
</svg>
